<svg clip-rule="evenodd" fill-rule="evenodd" height="512" image-rendering="optimizeQuality" shape-rendering="geometricPrecision" text-rendering="geometricPrecision" viewBox="0 0 173.397 173.397" width="512" xmlns="http://www.w3.org/2000/svg"><g id="Layer_x0020_1"><g id="_317301056"><path id="_321378248" d="m125.494 133.896h-93.4052v16.3088c0 6.8236 20.9094 12.3552 46.7026 12.3552s46.7026-5.5316 46.7026-12.3552z" fill="#e69f0a"/><path id="_317303336" d="m41.4872 157.639c1.0545.3697 2.1852.7234 3.3868 1.0591v-21.2644c0-.9352-.7582-1.6934-1.6934-1.6934s-1.6934.7582-1.6934 1.6934zm14.073 3.2867c1.101.1672 2.2317.3224 3.3868.466v-19.6958c0-.9352-.7582-1.6934-1.6934-1.6934s-1.6934.7582-1.6934 1.6934zm14.3398 1.41c1.1153.0568 2.2447.1032 3.3868.1387v-18.995c0-.9352-.7582-1.6934-1.6934-1.6934s-1.6934.7582-1.6934 1.6934zm14.3958.1387c1.1419-.0356 2.2716-.0817 3.3868-.1387v-18.8563c0-.9352-.7582-1.6934-1.6934-1.6934s-1.6934.7582-1.6934 1.6934zm14.3396-1.0827c1.155-.1436 2.2859-.2986 3.3868-.466v-19.2298c0-.9352-.7582-1.6934-1.6934-1.6934s-1.6934.7582-1.6934 1.6934zm14.073-2.6936c1.2016-.3357 2.3324-.6894 3.3868-1.0591v-20.2053c0-.9352-.7582-1.6934-1.6934-1.6934s-1.6934.7582-1.6934 1.6934z" fill="#fed402"/><path id="_317303936" d="m78.7912 121.541c25.7932 0 46.7026 5.5317 46.7026 12.3552s-20.9094 12.3551-46.7026 12.3551-46.7026-5.5316-46.7026-12.3551 20.9094-12.3552 46.7026-12.3552z" fill="#fed402"/><path id="_317303888" d="m133.401 106.22h-93.4052v16.3088c0 6.8236 20.9094 12.3552 46.7026 12.3552s46.7026-5.5316 46.7026-12.3552z" fill="#e69f0a"/><path id="_317303840" d="m49.3946 131.233c1.0545.3697 2.1852.7234 3.3868 1.0591v-22.5344c0-.9352-.7582-1.6934-1.6934-1.6934s-1.6934.7582-1.6934 1.6934zm14.073 3.2867c1.101.1672 2.2317.3224 3.3868.466v-20.9658c0-.9352-.7582-1.6934-1.6934-1.6934s-1.6934.7582-1.6934 1.6934zm14.3398 1.41c1.1153.0568 2.2447.1032 3.3868.1387v-20.265c0-.9352-.7582-1.6934-1.6934-1.6934s-1.6934.7582-1.6934 1.6934zm14.3958.1387c1.1419-.0356 2.2716-.0817 3.3868-.1387v-20.1263c0-.9352-.7582-1.6934-1.6934-1.6934s-1.6934.7582-1.6934 1.6934zm14.3396-1.0827c1.155-.1436 2.2859-.2986 3.3868-.466v-20.4998c0-.9352-.7582-1.6934-1.6934-1.6934s-1.6934.7582-1.6934 1.6934zm14.073-2.6936c.9578-.2676 1.8714-1.8162 2.7363-2.1055.22-.0736.4366-.1486.6505-.2236v-20.2053c0-.9352-.7582-1.6934-1.6934-1.6934s-1.6934.7582-1.6934 1.6934z" fill="#fed402"/><path id="_317303360" d="m86.6986 93.8649c25.7932 0 46.7026 5.5317 46.7026 12.3552s-20.9094 12.3551-46.7026 12.3551-46.7026-5.5316-46.7026-12.3551 20.9094-12.3552 46.7026-12.3552z" fill="#fed402"/><path id="_317303192" d="m125.494 78.5442h-93.4052v16.3088c0 6.8236 20.9094 12.3552 46.7026 12.3552s46.7026-5.5316 46.7026-12.3552z" fill="#e69f0a"/><path id="_317303072" d="m41.4872 102.287c.2141.0751.4304.15.6505.2236.8648.2891 1.7787 3.108 2.7363 3.3755v-23.8044c0-.9352-.7582-1.6934-1.6934-1.6934s-1.6934.7582-1.6934 1.6934zm14.073 5.8267c1.101.1672 2.2317.3224 3.3868.466v-22.2358c0-.9352-.7582-1.6934-1.6934-1.6934s-1.6934.7582-1.6934 1.6934zm14.3398 1.41c1.1153.0568 2.2447.1032 3.3868.1387v-21.535c0-.9352-.7582-1.6934-1.6934-1.6934s-1.6934.7582-1.6934 1.6934zm14.3958.1387c1.1419-.0356 2.2716-.0817 3.3868-.1387v-21.3963c0-.9352-.7582-1.6934-1.6934-1.6934s-1.6934.7582-1.6934 1.6934zm14.3396-1.0827c1.155-.1436 2.2859-.2986 3.3868-.466v-21.7698c0-.9352-.7582-1.6934-1.6934-1.6934s-1.6934.7582-1.6934 1.6934zm14.073-2.6936c1.2016-.3357 2.3324-.6894 3.3868-1.0591v-22.7453c0-.9352-.7582-1.6934-1.6934-1.6934s-1.6934.7582-1.6934 1.6934z" fill="#fed402"/><path id="_317302880" d="m78.7912 66.189c25.7932 0 46.7026 5.5317 46.7026 12.3552s-20.9094 12.3551-46.7026 12.3551-46.7026-5.5316-46.7026-12.3551 20.9094-12.3552 46.7026-12.3552z" fill="#fed402"/><path id="_317302640" d="m141.309 50.8683h-93.4052v16.3088c0 6.8236 20.9094 12.3552 46.7026 12.3552s46.7026-5.5316 46.7026-12.3552z" fill="#e69f0a"/><path id="_317301872" d="m57.302 75.881c1.0545.3697 2.1852.7234 3.3868 1.0591v-22.5344c0-.9352-.7582-1.6934-1.6934-1.6934s-1.6934.7582-1.6934 1.6934zm14.073 3.2867c1.101.1672 2.2317.3224 3.3868.466v-20.9658c0-.9352-.7582-1.6934-1.6934-1.6934s-1.6934.7582-1.6934 1.6934zm14.3398 1.41c1.1153.0568 2.2447.1032 3.3868.1387v-20.265c0-.9352-.7582-1.6934-1.6934-1.6934s-1.6934.7582-1.6934 1.6934zm14.3958.1387c1.1419-.0356 2.2716-.0817 3.3868-.1387v-20.1263c0-.9352-.7582-1.6934-1.6934-1.6934s-1.6934.7582-1.6934 1.6934zm14.3396-1.0827c1.155-.1436 2.2859-.2986 3.3868-.466v-20.4998c0-.9352-.7582-1.6934-1.6934-1.6934s-1.6934.7582-1.6934 1.6934zm14.073-3.9636c1.2016-.3357 2.3324-.6894 3.3868-1.0591v-20.2053c0-.9352-.7582-1.6934-1.6934-1.6934s-1.6934.7582-1.6934 1.6934z" fill="#fed402"/><path id="_317302040" d="m94.606 38.5131c25.7932 0 46.7026 5.5317 46.7026 12.3552s-20.9094 12.3551-46.7026 12.3551-46.7026-5.5316-46.7026-12.3551 20.9094-12.3552 46.7026-12.3552z" fill="#fed402"/><path id="_317302136" d="m125.494 23.1924h-93.4052v16.3088c0 6.8236 20.9094 12.3552 46.7026 12.3552s46.7026-5.5316 46.7026-12.3552z" fill="#e69f0a"/><g fill="#fed402"><path id="_317301752" d="m41.4872 46.9351c1.0545.3697 2.1852.7234 3.3868 1.0591v-21.2644c0-.9352-.7582-1.6934-1.6934-1.6934s-1.6934.7582-1.6934 1.6934zm14.073 4.5567c1.101.1672 2.2317.3224 3.3868.466v-20.9658c0-.9352-.7582-1.6934-1.6934-1.6934s-1.6934.7582-1.6934 1.6934zm14.3398 1.41c1.1153.0568 2.2447.1032 3.3868.1387v-20.265c0-.9352-.7582-1.6934-1.6934-1.6934s-1.6934.7582-1.6934 1.6934zm14.3958.1387c1.1419-.0356 2.2716-.0817 3.3868-.1387v-20.1263c0-.9352-.7582-1.6934-1.6934-1.6934s-1.6934.7582-1.6934 1.6934zm14.3396-1.0827c1.155-.1436 2.2859-.2986 3.3868-.466v-20.4998c0-.9352-.7582-1.6934-1.6934-1.6934s-1.6934.7582-1.6934 1.6934zm14.073-2.6936c1.2016-.3357 2.3324-.6894 3.3868-1.0591v-21.4753c0-.9352-.7582-1.6934-1.6934-1.6934s-1.6934.7582-1.6934 1.6934z"/><path id="_317301776" d="m78.7912 10.8372c25.7932 0 46.7026 5.5317 46.7026 12.3552s-20.9094 12.3551-46.7026 12.3551-46.7026-5.5316-46.7026-12.3551 20.9094-12.3552 46.7026-12.3552z"/></g></g></g></svg>